<svg xmlns="http://www.w3.org/2000/svg" viewBox="0 0 580 290" font-family="monospace" font-size="13">
  <!-- Background -->
  <rect width="580" height="290" fill="#1a1a2e" rx="4"/>

  <!-- Title -->
  <text x="310" y="26" fill="#e0e0e0" text-anchor="middle" font-size="14" font-weight="bold">Established Frame Outer Header (16 bytes, AEAD AAD)</text>

  <!-- Bit ruler -->
  <text x="85" y="50" fill="#888" font-size="10" text-anchor="middle">0</text>
  <text x="150" y="50" fill="#888" font-size="10" text-anchor="middle">4</text>
  <text x="215" y="50" fill="#888" font-size="10" text-anchor="middle">8</text>
  <text x="345" y="50" fill="#888" font-size="10" text-anchor="middle">16</text>
  <text x="550" y="50" fill="#888" font-size="10" text-anchor="middle">32</text>

  <!-- Row 0: Common prefix (bytes 0-3) -->
  <text x="50" y="82" fill="#666" font-size="10" text-anchor="end">0–3</text>

  <rect x="55" y="56" width="95" height="52" fill="#2d4a7a" stroke="#4a90d9" stroke-width="1.5" rx="3"/>
  <text x="102" y="80" fill="#e0e0e0" text-anchor="middle" font-size="12" font-weight="bold">ver</text>
  <text x="102" y="98" fill="#8ab4f8" text-anchor="middle" font-size="10">4 bits</text>

  <rect x="150" y="56" width="95" height="52" fill="#2d5a4a" stroke="#4ad99a" stroke-width="1.5" rx="3"/>
  <text x="197" y="80" fill="#e0e0e0" text-anchor="middle" font-size="12" font-weight="bold">phase</text>
  <text x="197" y="98" fill="#8af8c8" text-anchor="middle" font-size="10">4 bits</text>

  <rect x="245" y="56" width="130" height="52" fill="#5a3d2d" stroke="#d9904a" stroke-width="1.5" rx="3"/>
  <text x="310" y="80" fill="#e0e0e0" text-anchor="middle" font-size="12" font-weight="bold">flags</text>
  <text x="310" y="98" fill="#f8c88a" text-anchor="middle" font-size="10">1 byte</text>

  <rect x="375" y="56" width="200" height="52" fill="#4a2d5a" stroke="#b04ad9" stroke-width="1.5" rx="3"/>
  <text x="475" y="80" fill="#e0e0e0" text-anchor="middle" font-size="12" font-weight="bold">payload_len</text>
  <text x="475" y="98" fill="#d8a0f8" text-anchor="middle" font-size="10">2 bytes LE</text>

  <!-- Row 1: receiver_idx (bytes 4-7) -->
  <text x="50" y="134" fill="#666" font-size="10" text-anchor="end">4–7</text>

  <rect x="55" y="108" width="520" height="52" fill="#2d5a5a" stroke="#4ad9d9" stroke-width="1.5" rx="3"/>
  <text x="315" y="132" fill="#e0e0e0" text-anchor="middle" font-size="12" font-weight="bold">receiver_idx</text>
  <text x="315" y="150" fill="#8af8f8" text-anchor="middle" font-size="10">4 bytes LE</text>

  <!-- Row 2: counter low (bytes 8-11) -->
  <text x="50" y="186" fill="#666" font-size="10" text-anchor="end">8–11</text>

  <rect x="55" y="160" width="520" height="52" fill="#5a2d3d" stroke="#d94a6a" stroke-width="1.5" rx="3"/>
  <text x="315" y="190" fill="#e0e0e0" text-anchor="middle" font-size="12" font-weight="bold">counter / lower 4 bytes LE</text>

  <!-- Row 3: counter high (bytes 12-15) -->
  <text x="50" y="238" fill="#666" font-size="10" text-anchor="end">12–15</text>

  <rect x="55" y="212" width="520" height="52" fill="#5a2d3d" stroke="#d94a6a" stroke-width="1.5" rx="3"/>
  <text x="315" y="242" fill="#e0e0e0" text-anchor="middle" font-size="12" font-weight="bold">counter / upper 4 bytes LE</text>
</svg>
