<svg xmlns="http://www.w3.org/2000/svg" viewBox="0 0 580 374" font-family="monospace" font-size="13">
  <!-- Background -->
  <rect width="580" height="374" fill="#1a1a2e" rx="4"/>

  <!-- Title -->
  <text x="310" y="26" fill="#e0e0e0" text-anchor="middle" font-size="14" font-weight="bold">TreeAnnounce (0x10) — 100 + 32n bytes</text>

  <!-- Row 0 (0–3): msg_type(1) + version(1) + sequence starts -->
  <text x="50" y="62" fill="#666" font-size="10" text-anchor="end">0–3</text>

  <rect x="55" y="36" width="130" height="52" fill="#2d4a7a" stroke="#4a90d9" stroke-width="1.5" rx="3"/>
  <text x="120" y="60" fill="#e0e0e0" text-anchor="middle" font-size="12" font-weight="bold">msg_type</text>
  <text x="120" y="78" fill="#8ab4f8" text-anchor="middle" font-size="10">0x10</text>

  <rect x="185" y="36" width="130" height="52" fill="#2d5a4a" stroke="#4ad99a" stroke-width="1.5" rx="3"/>
  <text x="250" y="60" fill="#e0e0e0" text-anchor="middle" font-size="12" font-weight="bold">version</text>
  <text x="250" y="78" fill="#8af8c8" text-anchor="middle" font-size="10">0x01</text>

  <rect x="315" y="36" width="260" height="52" fill="#5a3d2d" stroke="#d9904a" stroke-width="1.5" rx="3"/>
  <text x="445" y="66" fill="#e0e0e0" text-anchor="middle" font-size="12" font-weight="bold">sequence</text>

  <!-- Row 1 (4–9): sequence continued -->
  <text x="50" y="114" fill="#666" font-size="10" text-anchor="end">4–9</text>

  <rect x="55" y="88" width="520" height="52" fill="#5a3d2d" stroke="#d9904a" stroke-width="1.5" rx="3"/>
  <text x="315" y="118" fill="#f8c88a" text-anchor="middle" font-size="10">8 bytes LE — monotonic counter</text>

  <!-- Row 2 (10–17): timestamp -->
  <text x="50" y="166" fill="#666" font-size="10" text-anchor="end">10–17</text>

  <rect x="55" y="140" width="520" height="52" fill="#4a2d5a" stroke="#b04ad9" stroke-width="1.5" rx="3"/>
  <text x="315" y="162" fill="#e0e0e0" text-anchor="middle" font-size="12" font-weight="bold">timestamp</text>
  <text x="315" y="180" fill="#d8a0f8" text-anchor="middle" font-size="10">8 bytes LE — Unix seconds</text>

  <!-- Row 3 (18–33): parent -->
  <text x="50" y="218" fill="#666" font-size="10" text-anchor="end">18–33</text>

  <rect x="55" y="192" width="520" height="52" fill="#2d5a5a" stroke="#4ad9d9" stroke-width="1.5" rx="3"/>
  <text x="315" y="214" fill="#e0e0e0" text-anchor="middle" font-size="12" font-weight="bold">parent</text>
  <text x="315" y="232" fill="#8af8f8" text-anchor="middle" font-size="10">16 bytes — NodeAddr (self = root)</text>

  <!-- Row 4 (34–35): ancestry_count -->
  <text x="50" y="270" fill="#666" font-size="10" text-anchor="end">34–35</text>

  <rect x="55" y="250" width="260" height="40" fill="#5a2d3d" stroke="#d94a6a" stroke-width="1.5" rx="3"/>
  <text x="185" y="274" fill="#e0e0e0" text-anchor="middle" font-size="12" font-weight="bold">ancestry_count</text>

  <!-- Row 5 (36–): ancestry entries -->
  <text x="50" y="316" fill="#666" font-size="10" text-anchor="end">36–</text>

  <rect x="55" y="296" width="520" height="40" fill="#1f1f3a" stroke="#d9904a" stroke-width="1" stroke-dasharray="4,3" rx="3"/>
  <text x="315" y="320" fill="#f8c88a" text-anchor="middle" font-size="11">AncestryEntry × n (32 bytes each)</text>

  <!-- Signature -->
  <text x="50" y="360" fill="#666" font-size="10" text-anchor="end">+64</text>

  <rect x="55" y="342" width="520" height="26" fill="#3d4a2d" stroke="#8ad94a" stroke-width="1.5" rx="3"/>
  <text x="315" y="360" fill="#e0e0e0" text-anchor="middle" font-size="10" font-weight="bold">Schnorr signature (64 bytes)</text>
</svg>
